<?xml version="1.0" encoding="iso-8859-1"?>
<!-- Uploaded to: SVG Repo, www.svgrepo.com, Generator: SVG Repo Mixer Tools -->
<svg fill="#000000" height="20px" width="20px" version="1.1" id="Layer_1" xmlns="http://www.w3.org/2000/svg" xmlns:xlink="http://www.w3.org/1999/xlink"
	 viewBox="0 0 512 512" xml:space="preserve">
<g>
	<g>
		<path d="M148.837,345.302H89.302c-9.864,0-17.86,7.997-17.86,17.86c0,9.864,7.997,17.86,17.86,17.86h59.535
			c9.864,0,17.86-7.997,17.86-17.86C166.698,353.299,158.701,345.302,148.837,345.302z"/>
	</g>
</g>
<g>
	<g>
		<path d="M184.558,273.861H89.302c-9.864,0-17.86,7.997-17.86,17.86c0,9.864,7.997,17.86,17.86,17.86h95.256
			c9.864,0,17.86-7.997,17.86-17.86C202.419,281.857,194.422,273.861,184.558,273.861z"/>
	</g>
</g>
<g>
	<g>
		<path d="M148.837,202.419H89.302c-9.864,0-17.86,7.997-17.86,17.86c0,9.864,7.997,17.86,17.86,17.86h59.535
			c9.864,0,17.86-7.997,17.86-17.86C166.698,210.415,158.701,202.419,148.837,202.419z"/>
	</g>
</g>
<g>
	<g>
		<path d="M184.558,130.977H89.302c-9.864,0-17.86,7.997-17.86,17.86c0,9.864,7.997,17.86,17.86,17.86h95.256
			c9.864,0,17.86-7.997,17.86-17.86C202.419,138.973,194.422,130.977,184.558,130.977z"/>
	</g>
</g>
<g>
	<g>
		<path d="M386.977,345.302h-59.535c-9.864,0-17.86,7.997-17.86,17.86c0,9.864,7.997,17.86,17.86,17.86h59.535
			c9.864,0,17.86-7.997,17.86-17.86C404.837,353.299,396.84,345.302,386.977,345.302z"/>
	</g>
</g>
<g>
	<g>
		<path d="M422.698,273.861h-95.256c-9.864,0-17.86,7.997-17.86,17.86c0,9.864,7.997,17.86,17.86,17.86h95.256
			c9.864,0,17.86-7.997,17.86-17.86C440.558,281.857,432.561,273.861,422.698,273.861z"/>
	</g>
</g>
<g>
	<g>
		<path d="M386.977,202.419h-59.535c-9.864,0-17.86,7.997-17.86,17.86c0,9.864,7.997,17.86,17.86,17.86h59.535
			c9.864,0,17.86-7.997,17.86-17.86C404.837,210.415,396.84,202.419,386.977,202.419z"/>
	</g>
</g>
<g>
	<g>
		<path d="M422.698,130.977h-95.256c-9.864,0-17.86,7.997-17.86,17.86c0,9.864,7.997,17.86,17.86,17.86h95.256
			c9.864,0,17.86-7.997,17.86-17.86C440.558,138.973,432.561,130.977,422.698,130.977z"/>
	</g>
</g>
<g>
	<g>
		<path d="M494.14,59.535H256H17.86C7.997,59.535,0,67.532,0,77.395v357.209c0,9.864,7.997,17.86,17.86,17.86H256h238.14
			c9.864,0,17.86-7.997,17.86-17.86V77.395C512,67.532,504.003,59.535,494.14,59.535z M238.14,416.744H35.721V95.256H238.14V416.744
			z M476.279,416.744H273.86V95.256h202.419V416.744z"/>
	</g>
</g>
</svg>
