<?xml version="1.0" encoding="iso-8859-1"?>
<!-- Uploaded to: SVG Repo, www.svgrepo.com, Generator: SVG Repo Mixer Tools -->
<svg fill="#000000" height="20px" width="20px" version="1.1" id="Layer_1" xmlns="http://www.w3.org/2000/svg" xmlns:xlink="http://www.w3.org/1999/xlink"
	 viewBox="0 0 512 512" xml:space="preserve">
<g>
	<g>
		<path d="M339.3,120.97c0-27.415-7.653-56.137-20.998-78.799C302.289,14.977,280.163,0,256,0s-46.289,14.977-62.303,42.171
			C180.353,64.833,172.7,93.555,172.7,120.97c0,48.168,25.105,80.137,66.604,86.772v96.904h-34.62V512h102.63V304.646h-34.619
			v-96.904C314.195,201.107,339.3,169.137,339.3,120.97z M273.924,338.037v140.572h-35.848V338.037H273.924z M256.001,175.656
			c-15.594,0-27.744-4.243-36.108-12.61c-9.159-9.159-13.802-23.316-13.802-42.076c0-44.199,24.721-87.579,49.909-87.579
			s49.909,43.38,49.909,87.579c0,18.76-4.643,32.917-13.8,42.076C283.744,171.414,271.595,175.656,256.001,175.656z"/>
	</g>
</g>
</svg>
